<svg width="20" height="20" viewBox="0 0 20 20" fill="none" xmlns="http://www.w3.org/2000/svg">
<path fill-rule="evenodd" clip-rule="evenodd" d="M5.38447 0C5.80914 0 6.1534 0.344264 6.1534 0.768935V1.53851H13.8466V0.768935C13.8466 0.344264 14.1909 0 14.6155 0C15.0402 0 15.3845 0.344264 15.3845 0.768935V1.53851H16.1553C18.2787 1.53851 20 3.25983 20 5.38319V16.1553C20 18.2787 18.2787 20 16.1553 20H3.84467C1.72132 20 0 18.2787 0 16.1553V5.38319C0 3.25983 1.72132 1.53851 3.84468 1.53851H4.61553V0.768935C4.61553 0.344264 4.9598 0 5.38447 0ZM4.61553 3.07638H3.84468C2.57066 3.07638 1.53787 4.10917 1.53787 5.38319V6.66688H18.4621V5.38319C18.4621 4.10917 17.4293 3.07638 16.1553 3.07638H15.3845V3.84596C15.3845 4.27063 15.0402 4.61489 14.6155 4.61489C14.1909 4.61489 13.8466 4.27063 13.8466 3.84596V3.07638H6.1534V3.84596C6.1534 4.27063 5.80914 4.61489 5.38447 4.61489C4.9598 4.61489 4.61553 4.27063 4.61553 3.84596V3.07638ZM18.4621 8.20475H1.53787V16.1553C1.53787 17.4293 2.57066 18.4621 3.84467 18.4621H16.1553C17.4293 18.4621 18.4621 17.4293 18.4621 16.1553V8.20475Z" fill="#616686"/>
<path fill-rule="evenodd" clip-rule="evenodd" d="M8.97264 11.2052C8.97007 10.6462 9.42358 10.1975 9.97655 10.1975C10.5305 10.1975 10.9825 10.6456 10.9825 11.2025C10.9825 11.7574 10.5325 12.2074 9.97756 12.2074C9.42354 12.2074 8.97412 11.7589 8.97264 11.2052Z" fill="#616686"/>
<path fill-rule="evenodd" clip-rule="evenodd" d="M3.94755 11.2067C3.94498 10.6477 4.39849 10.199 4.95145 10.199C5.50542 10.199 5.95737 10.647 5.95737 11.2039C5.95737 11.7589 5.50739 12.2088 4.95246 12.2088C4.39844 12.2088 3.94902 11.7603 3.94755 11.2067Z" fill="#616686"/>
<path fill-rule="evenodd" clip-rule="evenodd" d="M13.9972 11.2052C13.9947 10.6462 14.4482 10.1975 15.0011 10.1975C15.5551 10.1975 16.0071 10.6456 16.0071 11.2025C16.0071 11.7574 15.5571 12.2074 15.0021 12.2074C14.4481 12.2074 13.9987 11.7589 13.9972 11.2052Z" fill="#616686"/>
<path fill-rule="evenodd" clip-rule="evenodd" d="M13.9972 15.2263C13.9947 14.6674 14.4482 14.2187 15.0011 14.2187C15.5551 14.2187 16.0071 14.6667 16.0071 15.2236C16.0071 15.7785 15.5571 16.2285 15.0021 16.2285C14.4481 16.2285 13.9987 15.78 13.9972 15.2263Z" fill="#616686"/>
<path fill-rule="evenodd" clip-rule="evenodd" d="M3.94755 15.2249C3.94498 14.6659 4.39849 14.2172 4.95145 14.2172C5.50542 14.2172 5.95737 14.6652 5.95737 15.2221C5.95737 15.7771 5.50739 16.227 4.95246 16.227C4.39844 16.227 3.94902 15.7785 3.94755 15.2249Z" fill="#616686"/>
<path fill-rule="evenodd" clip-rule="evenodd" d="M8.97264 15.2249C8.97007 14.6659 9.42358 14.2172 9.97655 14.2172C10.5305 14.2172 10.9825 14.6652 10.9825 15.2221C10.9825 15.7771 10.5325 16.227 9.97756 16.227C9.42354 16.227 8.97412 15.7785 8.97264 15.2249Z" fill="#616686"/>
</svg>
