<svg width="19" height="21" viewBox="0 0 19 21" xmlns="http://www.w3.org/2000/svg">
<path fill-rule="evenodd" clip-rule="evenodd" d="M0.496704 2.99717C0.496704 1.4775 1.72786 0.246338 3.24754 0.246338H10.4225C11.1519 0.246338 11.8518 0.536602 12.3674 1.05225L15.1966 3.88143C15.7123 4.39708 16.0025 5.09699 16.0025 5.82635V7.99925C16.0025 8.41347 15.6668 8.74925 15.2525 8.74925C14.8383 8.74925 14.5025 8.41347 14.5025 7.99925V6.74842H11.2509C10.2844 6.74842 9.50045 5.96445 9.50045 4.998V1.74634H3.24754C2.55629 1.74634 1.9967 2.30592 1.9967 2.99717V17.003C1.9967 17.6943 2.55629 18.2538 3.24754 18.2538H7.2492C7.66342 18.2538 7.9992 18.5896 7.9992 19.0038C7.9992 19.4181 7.66342 19.7538 7.2492 19.7538H3.24754C1.72786 19.7538 0.496704 18.5227 0.496704 17.003V2.99717ZM11.0005 1.88815V4.998C11.0005 5.13602 11.1129 5.24842 11.2509 5.24842H14.3607C14.3024 5.13649 14.2269 5.033 14.136 4.94209L11.3068 2.11291C11.2159 2.022 11.1124 1.94652 11.0005 1.88815ZM3.50003 6.00009C3.50003 5.58587 3.83582 5.25009 4.25003 5.25009H7.25003C7.66424 5.25009 8.00003 5.58587 8.00003 6.00009C8.00003 6.4143 7.66424 6.75009 7.25003 6.75009H4.25003C3.83582 6.75009 3.50003 6.4143 3.50003 6.00009ZM3.50003 9.00009C3.50003 8.58587 3.83582 8.25009 4.25003 8.25009H9.25003C9.66424 8.25009 10 8.58587 10 9.00009C10 9.4143 9.66424 9.75009 9.25003 9.75009H4.25003C3.83582 9.75009 3.50003 9.4143 3.50003 9.00009ZM13.7519 11.7505C11.6801 11.7505 10 13.4306 10 15.5024C10 17.5742 11.6801 19.2543 13.7519 19.2543C15.8246 19.2543 17.5038 17.5743 17.5038 15.5024C17.5038 13.4304 15.8246 11.7505 13.7519 11.7505ZM8.50004 15.5024C8.50004 12.6021 10.8517 10.2505 13.7519 10.2505C16.6533 10.2505 19.0038 12.6022 19.0038 15.5024C19.0038 18.4025 16.6533 20.7543 13.7519 20.7543C10.8517 20.7543 8.50004 18.4026 8.50004 15.5024ZM15.9399 14.1437C16.2328 14.4366 16.2328 14.9115 15.9399 15.2044L13.8671 17.2772C13.7263 17.418 13.5355 17.497 13.3364 17.4969C13.1374 17.4968 12.9466 17.4176 12.806 17.2768L11.5635 16.0323C11.2708 15.7392 11.2712 15.2643 11.5643 14.9716C11.8574 14.679 12.3323 14.6793 12.625 14.9725L13.3372 15.6858L14.8793 14.1437C15.1722 13.8508 15.647 13.8508 15.9399 14.1437Z" />
</svg>
