<svg width="24" height="24" viewBox="0 0 24 24" fill="none" xmlns="http://www.w3.org/2000/svg">
<path d="M4 6.5C4 6.08579 4.33579 5.75 4.75 5.75H19.25C19.6642 5.75 20 6.08579 20 6.5C20 6.91421 19.6642 7.25 19.25 7.25H4.75C4.33579 7.25 4 6.91421 4 6.5Z" fill="#1D2452"/>
<path d="M6 12C6 11.5858 6.33579 11.25 6.75 11.25H17.25C17.6642 11.25 18 11.5858 18 12C18 12.4142 17.6642 12.75 17.25 12.75H6.75C6.33579 12.75 6 12.4142 6 12Z" fill="#1D2452"/>
<path d="M8.75 16.75C8.33579 16.75 8 17.0858 8 17.5C8 17.9142 8.33579 18.25 8.75 18.25H15.25C15.6642 18.25 16 17.9142 16 17.5C16 17.0858 15.6642 16.75 15.25 16.75H8.75Z" fill="#1D2452"/>
</svg>
