<svg width="23" height="20" viewBox="0 0 23 20" xmlns="http://www.w3.org/2000/svg">
<path fill-rule="evenodd" clip-rule="evenodd" d="M11.07 0.135576C11.3282 -0.045192 11.6719 -0.045192 11.9302 0.135576L21.9302 7.13558C22.2695 7.37311 22.352 7.84076 22.1145 8.1801C21.877 8.51943 21.4093 8.60196 21.07 8.36442L20.2501 7.79049V18.7501C20.2501 19.1643 19.9143 19.5001 19.5001 19.5001H3.50006C3.08585 19.5001 2.75006 19.1643 2.75006 18.7501V7.79049L1.93016 8.36442C1.59082 8.60196 1.12318 8.51943 0.88564 8.1801C0.648105 7.84076 0.730631 7.37311 1.06997 7.13558L11.07 0.135576ZM4.25006 6.74049V18.0001H7.75006V12.75C7.75006 11.2308 8.98085 10 10.5001 10H12.5001C14.0193 10 15.2501 11.2308 15.2501 12.75V18.0001H18.7501V6.74049L11.5001 1.66549L4.25006 6.74049ZM13.7501 18.0001V12.75C13.7501 12.0592 13.1909 11.5 12.5001 11.5H10.5001C9.80928 11.5 9.25006 12.0592 9.25006 12.75V18.0001H13.7501Z"/>
</svg>
