<svg width="24" height="24" viewBox="0 0 24 24" fill="none" xmlns="http://www.w3.org/2000/svg">
<path fill-rule="evenodd" clip-rule="evenodd" d="M7.40012 6.25H6C4.48122 6.25 3.25 7.48122 3.25 9V19C3.25 20.5188 4.48122 21.75 6 21.75H18C19.5188 21.75 20.75 20.5188 20.75 19V9C20.75 7.48122 19.5188 6.25 18 6.25H16.6266C16.37 4.99382 15.9688 4.00746 15.274 3.32381C14.4397 2.50284 13.3221 2.25 12 2.25C10.6501 2.25 9.56466 2.53443 8.75429 3.37225C8.09043 4.05861 7.69595 5.03598 7.40012 6.25ZM8.94992 6.25H15.0907C14.8676 5.30672 14.5762 4.74155 14.222 4.393C13.7972 3.97504 13.1569 3.75 12 3.75C10.8499 3.75 10.2432 3.99047 9.83247 4.4151C9.48418 4.77518 9.20085 5.34138 8.94992 6.25ZM6 7.75C5.30964 7.75 4.75 8.30964 4.75 9V19C4.75 19.6904 5.30964 20.25 6 20.25H18C18.6904 20.25 19.25 19.6904 19.25 19V9C19.25 8.30964 18.6904 7.75 18 7.75H6ZM15.4939 11.5328C15.8056 11.8055 15.8372 12.2793 15.5644 12.5911L12.0644 16.5911C11.9277 16.7473 11.7324 16.8399 11.525 16.8468C11.3175 16.8537 11.1164 16.7743 10.9697 16.6275L8.96967 14.6275C8.67678 14.3346 8.67678 13.8598 8.96967 13.5669C9.26256 13.274 9.73744 13.274 10.0303 13.5669L11.4635 15L14.4356 11.6033C14.7083 11.2916 15.1822 11.26 15.4939 11.5328Z" fill="#1D2452"/>
</svg>
