<svg width="32" height="32" viewBox="0 0 32 32" fill="none" xmlns="http://www.w3.org/2000/svg">
<path fill-rule="evenodd" clip-rule="evenodd" d="M16 8C15.2636 8 14.6667 8.59695 14.6667 9.33333V14.6667H9.33333C8.59695 14.6667 8 15.2636 8 16C8 16.7364 8.59695 17.3333 9.33333 17.3333H14.6667V22.6667C14.6667 23.403 15.2636 24 16 24C16.7364 24 17.3333 23.403 17.3333 22.6667V17.3333H22.6667C23.403 17.3333 24 16.7364 24 16C24 15.2636 23.403 14.6667 22.6667 14.6667H17.3333V9.33333C17.3333 8.59695 16.7364 8 16 8Z" fill="white"/>
</svg>
