<svg width="24" height="24" viewBox="0 0 24 24" fill="none" xmlns="http://www.w3.org/2000/svg">
<path fill-rule="evenodd" clip-rule="evenodd" d="M12.2504 8.99872C12.2504 8.5845 12.5862 8.24872 13.0004 8.24872H17.002C17.4163 8.24872 17.752 8.5845 17.752 8.99872C17.752 9.41293 17.4163 9.74872 17.002 9.74872H13.0004C12.5862 9.74872 12.2504 9.41293 12.2504 8.99872Z" fill="#1D2452"/>
<path fill-rule="evenodd" clip-rule="evenodd" d="M7.9983 3.74622C5.64994 3.74622 3.74622 5.64994 3.74622 7.9983V16.0016C3.74622 18.35 5.64994 20.2537 7.9983 20.2537H9.99913C10.4133 20.2537 10.7491 20.5895 10.7491 21.0037C10.7491 21.4179 10.4133 21.7537 9.99913 21.7537H7.9983C4.82151 21.7537 2.24622 19.1784 2.24622 16.0016V7.9983C2.24622 4.82151 4.82151 2.24622 7.9983 2.24622H16.0016C19.1784 2.24622 21.7537 4.82151 21.7537 7.9983V9.99913C21.7537 10.4133 21.4179 10.7491 21.0037 10.7491C20.5895 10.7491 20.2537 10.4133 20.2537 9.99913V7.9983C20.2537 5.64994 18.35 3.74622 16.0016 3.74622H7.9983Z" fill="#1D2452"/>
<path fill-rule="evenodd" clip-rule="evenodd" d="M10.3254 7.38436C10.6025 7.69216 10.5777 8.16639 10.2699 8.44357L8.41916 10.1103C8.13382 10.3672 7.70051 10.3672 7.41524 10.1101L6.49586 9.2818C6.18813 9.00454 6.16342 8.53031 6.44068 8.22258C6.71794 7.91484 7.19217 7.89014 7.49991 8.1674L7.91739 8.54354L9.26615 7.32893C9.57395 7.05175 10.0482 7.07656 10.3254 7.38436Z" fill="#1D2452"/>
<path fill-rule="evenodd" clip-rule="evenodd" d="M10.3254 12.3864C10.6025 12.6942 10.5777 13.1685 10.2699 13.4457L8.41916 15.1124C8.13382 15.3693 7.70051 15.3692 7.41524 15.1122L6.49586 14.2839C6.18813 14.0066 6.16342 13.5324 6.44068 13.2247C6.71794 12.9169 7.19217 12.8922 7.49991 13.1695L7.91739 13.5456L9.26615 12.331C9.57395 12.0538 10.0482 12.0786 10.3254 12.3864Z" fill="#1D2452"/>
<path fill-rule="evenodd" clip-rule="evenodd" d="M16.0935 18.2529L16.0957 18.2529L18.911 18.2529C20.4791 18.2574 21.7492 19.5275 21.7537 21.0956L21.7537 21.0978L21.7537 21.5039C21.7537 22.1944 21.194 22.7541 20.5035 22.7541H14.501C14.1694 22.7541 13.8514 22.6224 13.617 22.388C13.3825 22.1535 13.2508 21.8355 13.2508 21.5039V21.0956C13.2553 19.5275 14.5254 18.2574 16.0935 18.2529ZM16.0969 19.7529C15.3546 19.7555 14.7534 20.3566 14.7508 21.0989V21.2541H20.2537V21.099C20.2511 20.3567 19.65 19.7555 18.9077 19.7529H16.0969Z" fill="#1D2452"/>
<path fill-rule="evenodd" clip-rule="evenodd" d="M17.5023 13.5003C16.8114 13.5003 16.2514 14.0603 16.2514 14.7511C16.2514 15.4419 16.8114 16.0019 17.5023 16.0019C18.1931 16.0019 18.7531 15.4419 18.7531 14.7511C18.7531 14.0603 18.1931 13.5003 17.5023 13.5003ZM14.7514 14.7511C14.7514 13.2319 15.983 12.0003 17.5023 12.0003C19.0215 12.0003 20.2531 13.2319 20.2531 14.7511C20.2531 16.2704 19.0215 17.5019 17.5023 17.5019C15.983 17.5019 14.7514 16.2704 14.7514 14.7511Z" fill="#1D2452"/>
</svg>
