<svg width="24" height="24" viewBox="0 0 24 24" fill="none" xmlns="http://www.w3.org/2000/svg">
<path fill-rule="evenodd" clip-rule="evenodd" d="M7.41648 7.54732C5.95894 8.67372 4.67816 10.2235 3.77772 11.8887L3.11801 11.532L3.77806 11.8881C3.74101 11.9568 3.74097 12.042 3.77794 12.1107C4.67838 13.7763 5.95907 15.3261 7.41651 16.4526C8.87816 17.5823 10.4684 18.25 12 18.25C13.5316 18.25 15.1218 17.5823 16.5835 16.4527C18.0411 15.3263 19.3218 13.7765 20.2223 12.1113C20.2589 12.0428 20.2589 11.9579 20.2221 11.8895C19.3217 10.2238 18.041 8.67389 16.5835 7.54742C15.1218 6.41774 13.5316 5.75 12 5.75C10.4684 5.75 8.87814 6.41774 7.41648 7.54732ZM6.49926 6.36043C8.13185 5.09876 10.0366 4.25 12 4.25C13.9634 4.25 15.8682 5.09876 17.5008 6.36058C19.1375 7.62557 20.5502 9.34208 21.5418 11.1763L21.5421 11.1769C21.819 11.6902 21.819 12.3108 21.5421 12.8241L21.5417 12.8247C20.5502 14.6585 19.1374 16.3747 17.5007 17.6396C15.8681 18.9012 13.9634 19.75 12 19.75C10.0366 19.75 8.13183 18.9012 6.49923 17.6394C4.86251 16.3744 3.44978 14.6579 2.45822 12.8237L2.45793 12.8231C2.18101 12.3098 2.18101 11.6892 2.45793 11.1759L2.45827 11.1753C3.44982 9.34151 4.86255 7.62528 6.49926 6.36043Z" fill="#6E738F"/>
<path fill-rule="evenodd" clip-rule="evenodd" d="M13.6162 10.3838C12.7236 9.49115 11.2763 9.49115 10.3837 10.3838C9.49109 11.2764 9.49109 12.7236 10.3837 13.6162C11.2763 14.5089 12.7236 14.5089 13.6162 13.6162C14.5088 12.7236 14.5088 11.2764 13.6162 10.3838ZM14.6263 9.3736C13.1758 7.92308 10.8241 7.92308 9.37354 9.3736C7.92301 10.8241 7.92301 13.1759 9.37354 14.6264C10.8241 16.0769 13.1758 16.0769 14.6263 14.6264C16.0769 13.1759 16.0769 10.8241 14.6263 9.3736Z" fill="#6E738F"/>
</svg>
