<svg width="54" height="54" viewBox="0 0 54 54" fill="none" xmlns="http://www.w3.org/2000/svg">
<g filter="url(#filter0_d_4520_1366)">
<rect x="15" y="15" width="24" height="24" rx="12" fill="#E0E3F7" shape-rendering="crispEdges"/>
<mask id="mask0_4520_1366" style="mask-type:alpha" maskUnits="userSpaceOnUse" x="15" y="15" width="24" height="24">
<rect x="15" y="15" width="24" height="24" rx="12" fill="#D9D9D9"/>
</mask>
<g mask="url(#mask0_4520_1366)">
<path fill-rule="evenodd" clip-rule="evenodd" d="M21.8429 24.1351C21.8429 21.2991 24.1518 19 27 19C29.8482 19 32.1571 21.2991 32.1571 24.1351C32.1571 26.9712 29.8482 29.2703 27 29.2703C24.1518 29.2703 21.8429 26.9712 21.8429 24.1351Z" fill="#8D9CE9"/>
<path d="M22.9286 31.973C19.9305 31.973 17.5 34.3931 17.5 37.3784V38.1892C17.5 38.637 17.8646 39 18.3143 39C25.0932 42.9833 28.9093 42.9213 35.6857 39C36.1354 39 36.5 38.637 36.5 38.1892V37.3784C36.5 34.3931 34.0695 31.973 31.0714 31.973H22.9286Z" fill="#8D9CE9"/>
</g>
</g>
<defs>
<filter id="filter0_d_4520_1366" x="0" y="0" width="54" height="54" filterUnits="userSpaceOnUse" color-interpolation-filters="sRGB">
<feFlood flood-opacity="0" result="BackgroundImageFix"/>
<feColorMatrix in="SourceAlpha" type="matrix" values="0 0 0 0 0 0 0 0 0 0 0 0 0 0 0 0 0 0 127 0" result="hardAlpha"/>
<feOffset/>
<feGaussianBlur stdDeviation="7.5"/>
<feComposite in2="hardAlpha" operator="out"/>
<feColorMatrix type="matrix" values="0 0 0 0 0.180122 0 0 0 0 0.225121 0 0 0 0 0.520833 0 0 0 0.05 0"/>
<feBlend mode="normal" in2="BackgroundImageFix" result="effect1_dropShadow_4520_1366"/>
<feBlend mode="normal" in="SourceGraphic" in2="effect1_dropShadow_4520_1366" result="shape"/>
</filter>
</defs>
</svg>
